<svg width="43" height="43" viewBox="0 0 43 43" fill="none" xmlns="http://www.w3.org/2000/svg">
<g clip-path="url(#clip0_2643_15229)">
<path d="M35 0H8C3.58172 0 0 3.58172 0 8V35C0 39.4183 3.58172 43 8 43H35C39.4183 43 43 39.4183 43 35V8C43 3.58172 39.4183 0 35 0Z" fill="#E7F1F7"/>
<path d="M12.872 25.563C11.948 25.563 11.115 25.332 10.373 24.87C9.631 24.408 9.05 23.778 8.63 22.98C8.21 22.182 8 21.286 8 20.292C8 19.284 8.21 18.381 8.63 17.583C9.05 16.785 9.631 16.155 10.373 15.693C11.115 15.231 11.948 15 12.872 15C13.6 15 14.251 15.147 14.825 15.441C15.399 15.735 15.854 16.148 16.19 16.68C16.54 17.198 16.729 17.786 16.757 18.444V22.098C16.729 22.77 16.54 23.365 16.19 23.883C15.854 24.401 15.399 24.814 14.825 25.122C14.251 25.416 13.6 25.563 12.872 25.563ZM13.376 23.022C14.146 23.022 14.769 22.77 15.245 22.266C15.721 21.748 15.959 21.083 15.959 20.271C15.959 19.739 15.847 19.27 15.623 18.864C15.413 18.444 15.112 18.122 14.72 17.898C14.342 17.66 13.894 17.541 13.376 17.541C12.872 17.541 12.424 17.66 12.032 17.898C11.654 18.122 11.353 18.444 11.129 18.864C10.919 19.27 10.814 19.739 10.814 20.271C10.814 20.817 10.919 21.3 11.129 21.72C11.353 22.126 11.654 22.448 12.032 22.686C12.424 22.91 12.872 23.022 13.376 23.022ZM15.812 25.353V22.623L16.253 20.145L15.812 17.709V15.21H18.542V25.353H15.812Z" fill="#3575D9"/>
<path d="M24.6678 25.437L20.4258 15.21H23.4078L26.2218 23.022H25.2138L28.1328 15.21H31.1358L26.6208 25.437H24.6678ZM21.8538 29.595L24.9408 23.064L26.6208 25.437L24.7728 29.595H21.8538Z" fill="#3575D9"/>
<path d="M33.4837 25.5631C32.9797 25.5631 32.5667 25.3951 32.2447 25.0591C31.9227 24.7231 31.7617 24.3101 31.7617 23.8201C31.7617 23.3301 31.9227 22.9171 32.2447 22.5811C32.5667 22.2451 32.9797 22.0771 33.4837 22.0771C33.9737 22.0771 34.3797 22.2451 34.7017 22.5811C35.0237 22.9171 35.1847 23.3301 35.1847 23.8201C35.1847 24.3101 35.0237 24.7231 34.7017 25.0591C34.3797 25.3951 33.9737 25.5631 33.4837 25.5631Z" fill="#3575D9"/>
</g>
<defs>
<clipPath id="clip0_2643_15229">
<rect width="43" height="43" fill="white"/>
</clipPath>
</defs>
</svg>
